<svg width="202" height="28" viewBox="0 0 202 28" fill="none" xmlns="http://www.w3.org/2000/svg">
<path d="M33.7668 6.45455H37.5594L41.5651 16.2273H41.7355L45.7412 6.45455H49.5338V21H46.5509V11.5327H46.4301L42.6659 20.929H40.6347L36.8705 11.4972H36.7497V21H33.7668V6.45455ZM51.5675 21V6.45455H61.3687V8.99006H54.6428V12.456H60.8644V14.9915H54.6428V18.4645H61.3971V21H51.5675ZM79.8293 21V6.45455H82.9046V12.456H89.1474V6.45455H92.2156V21H89.1474V14.9915H82.9046V21H79.8293ZM99.7082 21V6.45455H105.447C106.55 6.45455 107.49 6.66525 108.266 7.08665C109.043 7.50331 109.635 8.08333 110.042 8.8267C110.454 9.56534 110.66 10.4176 110.66 11.3835C110.66 12.3494 110.452 13.2017 110.035 13.9403C109.618 14.679 109.015 15.2543 108.224 15.6662C107.438 16.0781 106.486 16.2841 105.369 16.2841H101.711V13.8196H104.872C105.463 13.8196 105.951 13.7178 106.335 13.5142C106.723 13.3059 107.012 13.0194 107.201 12.6548C107.395 12.2855 107.492 11.8617 107.492 11.3835C107.492 10.9006 107.395 10.4792 107.201 10.1193C107.012 9.75473 106.723 9.47301 106.335 9.27415C105.946 9.07055 105.454 8.96875 104.857 8.96875H102.783V21H99.7082ZM112.985 21H109.689L114.711 6.45455H118.674L123.688 21H120.392L116.749 9.77841H116.635L112.985 21ZM112.779 15.2827H120.563V17.6832H112.779V15.2827ZM124.939 21V6.45455H130.677C131.776 6.45455 132.713 6.65104 133.49 7.04403C134.271 7.43229 134.865 7.9839 135.272 8.69886C135.684 9.40909 135.89 10.2448 135.89 11.206C135.89 12.1719 135.682 13.0028 135.265 13.6989C134.849 14.3902 134.245 14.9205 133.454 15.2898C132.668 15.6591 131.717 15.8438 130.599 15.8438H126.757V13.3722H130.102C130.689 13.3722 131.177 13.2917 131.565 13.1307C131.953 12.9697 132.242 12.7282 132.432 12.4062C132.626 12.0843 132.723 11.6842 132.723 11.206C132.723 10.723 132.626 10.3158 132.432 9.98438C132.242 9.65294 131.951 9.40199 131.558 9.23153C131.17 9.05634 130.68 8.96875 130.088 8.96875H128.014V21H124.939ZM132.794 14.3807L136.409 21H133.014L129.477 14.3807H132.794ZM137.01 8.99006V6.45455H148.956V8.99006H144.503V21H141.463V8.99006H137.01ZM162.589 6.45455V21H159.933L153.605 11.8452H153.498V21H150.423V6.45455H153.122L159.4 15.6023H159.528V6.45455H162.589ZM164.63 21V6.45455H174.431V8.99006H167.705V12.456H173.927V14.9915H167.705V18.4645H174.46V21H164.63ZM176.376 21V6.45455H182.115C183.213 6.45455 184.151 6.65104 184.927 7.04403C185.709 7.43229 186.303 7.9839 186.71 8.69886C187.122 9.40909 187.328 10.2448 187.328 11.206C187.328 12.1719 187.12 13.0028 186.703 13.6989C186.286 14.3902 185.682 14.9205 184.892 15.2898C184.106 15.6591 183.154 15.8438 182.037 15.8438H178.194V13.3722H181.539C182.127 13.3722 182.614 13.2917 183.003 13.1307C183.391 12.9697 183.68 12.7282 183.869 12.4062C184.063 12.0843 184.16 11.6842 184.16 11.206C184.16 10.723 184.063 10.3158 183.869 9.98438C183.68 9.65294 183.388 9.40199 182.995 9.23153C182.607 9.05634 182.117 8.96875 181.525 8.96875H179.451V21H176.376ZM184.231 14.3807L187.846 21H184.451L180.914 14.3807H184.231ZM196.892 10.6378C196.835 10.0649 196.591 9.61979 196.16 9.30256C195.729 8.98532 195.145 8.8267 194.406 8.8267C193.904 8.8267 193.48 8.89773 193.135 9.03977C192.789 9.17708 192.524 9.36884 192.339 9.61506C192.159 9.86127 192.069 10.1406 192.069 10.4531C192.06 10.7135 192.114 10.9408 192.233 11.1349C192.356 11.3291 192.524 11.4972 192.737 11.6392C192.95 11.7765 193.196 11.8973 193.476 12.0014C193.755 12.1009 194.053 12.1861 194.37 12.2571L195.677 12.5696C196.312 12.7116 196.894 12.901 197.424 13.1378C197.955 13.3745 198.414 13.6657 198.802 14.0114C199.191 14.357 199.491 14.7642 199.704 15.233C199.922 15.7017 200.033 16.2391 200.038 16.8452C200.033 17.7353 199.806 18.5071 199.356 19.1605C198.911 19.8092 198.267 20.3134 197.424 20.6733C196.586 21.0284 195.575 21.206 194.392 21.206C193.218 21.206 192.195 21.026 191.324 20.6662C190.457 20.3063 189.78 19.7737 189.292 19.0682C188.809 18.358 188.556 17.4796 188.532 16.4332H191.508C191.541 16.9209 191.681 17.3281 191.927 17.6548C192.178 17.9768 192.512 18.2206 192.929 18.3864C193.35 18.5473 193.826 18.6278 194.356 18.6278C194.877 18.6278 195.329 18.5521 195.713 18.4006C196.101 18.2491 196.402 18.0384 196.615 17.7685C196.828 17.4986 196.934 17.1884 196.934 16.8381C196.934 16.5114 196.837 16.2367 196.643 16.0142C196.454 15.7917 196.174 15.6023 195.805 15.446C195.441 15.2898 194.993 15.1477 194.463 15.0199L192.879 14.6222C191.653 14.3239 190.684 13.8575 189.974 13.223C189.264 12.5885 188.911 11.7339 188.916 10.6591C188.911 9.77841 189.146 9.009 189.619 8.35085C190.097 7.69271 190.753 7.17898 191.586 6.80966C192.42 6.44034 193.367 6.25568 194.427 6.25568C195.507 6.25568 196.449 6.44034 197.254 6.80966C198.064 7.17898 198.693 7.69271 199.143 8.35085C199.593 9.009 199.825 9.77131 199.839 10.6378H196.892Z" fill="white"/>
<path d="M95.9628 21.1847C95.494 21.1847 95.0916 21.0189 94.7554 20.6875C94.424 20.3513 94.2582 19.9489 94.2582 19.4801C94.2582 19.0161 94.424 18.6184 94.7554 18.2869C95.0916 17.9555 95.494 17.7898 95.9628 17.7898C96.4173 17.7898 96.8151 17.9555 97.156 18.2869C97.4969 18.6184 97.6673 19.0161 97.6673 19.4801C97.6673 19.7926 97.5868 20.0791 97.4259 20.3395C97.2696 20.5952 97.0636 20.8011 96.808 20.9574C96.5523 21.1089 96.2706 21.1847 95.9628 21.1847Z" fill="#00A2FE"/>
<path fill-rule="evenodd" clip-rule="evenodd" d="M70.5026 17.5C69.8462 17.459 69.7727 17.3809 69.0026 17C67.6762 16.3299 67.5026 15.5 67.1658 14.9506C66.9267 13.856 66.9675 12.6783 67.692 11.6181C68.1998 10.8751 68.8851 10.3444 69.7314 10.122C70.3146 9.91845 71.2869 9.92456 72.5026 10.5C72.7869 10.6346 73.115 10.6828 73.7726 11.5H77.5026C77.5056 11.4956 77.511 11.9659 77.511 11.4874C77.3862 11.2371 77.1849 10.0235 77.0531 9.78066C77.0091 9.69951 76.6498 9.10224 76.5984 9.10224C76.4474 9.10224 75.5432 9.45708 75.4134 9.45708C75.3758 9.45708 74.9045 8.90407 74.6841 8.74745C74.7295 8.6471 75.0157 7.55086 75.0184 7.42502C74.696 7.24391 74.0592 6.72709 73.6207 6.61864L73.2033 7.111C73.0772 7.24418 72.8582 7.44637 72.7699 7.58629C72.5828 7.54001 72.4117 7.46225 72.205 7.4118C71.6613 7.27908 71.8755 7.50457 71.533 6.15764C71.4906 5.99081 71.4687 6.00248 71.2833 6.00339C71.0337 6.00468 70.7838 5.97947 70.6092 6C69.8234 6.09238 69.9374 5.71016 69.6782 7.0137C69.653 7.14045 69.6188 7.24692 69.6099 7.3605C69.3688 7.36621 68.9175 7.5568 68.668 7.61856L67.7636 6.67548C67.5174 6.81739 67.29 6.92521 67.0592 7.072L66.3891 7.5218C66.4854 7.96051 66.6565 8.4011 66.7537 8.84423C66.5566 8.98437 66.104 9.55385 66.0549 9.55385C65.8218 9.55385 65.1143 9.25555 64.8395 9.23129C64.6406 9.54665 64.1642 10.2987 64.0799 10.6828C64.1768 10.8364 64.961 11.5772 64.961 11.6181C64.961 11.7498 64.9277 11.8007 64.8965 11.9044C64.7315 12.4538 64.8425 12.6108 64.5924 12.6783C64.2179 12.7793 63.8684 12.8824 63.5026 12.9728C63.5026 13.7112 63.446 13.6085 63.5045 14.4545C63.5116 14.5562 63.5306 14.571 63.533 14.6824L64.6476 14.9506C64.8303 15.0058 64.7472 15.0271 64.8591 15.4357C64.9136 15.6348 64.982 15.8233 65.0218 16.0048L64.1332 16.9323C64.1783 17.1119 64.409 17.5285 64.4992 17.6885C64.64 17.9382 64.7833 18.1581 64.9307 18.3917C65.2576 18.3108 65.8181 18.0933 66.1764 18.0046C66.2491 18.1504 66.5252 18.4423 66.6626 18.5529C66.6983 18.5817 66.8449 18.6984 66.8449 18.7465C66.8449 18.8157 66.5431 19.9649 66.5106 20.0367L67.1658 20.4701C67.3385 20.5813 67.71 20.794 67.9084 20.8431C68.0561 20.7381 68.7178 19.9077 68.7895 19.9077C68.9249 19.9077 69.42 20.1334 69.7314 20.1334L70.0657 21.4559C70.5345 21.4559 71.113 21.5554 71.6457 21.4236C71.7031 21.2966 71.7585 20.9431 71.7976 20.7785C72.0012 19.9201 71.7902 20.2008 72.4321 20.0007C72.5054 19.9779 72.5816 19.9593 72.668 19.9285C72.7639 19.8943 72.8045 19.8647 72.8914 19.8431C73.0391 19.9481 73.7009 20.7786 73.7726 20.7786C73.8718 20.7786 74.0592 20.661 74.1376 20.6177L75.1399 19.9722C75.1399 19.802 75.1076 19.7672 75.0683 19.6289C74.6867 18.2876 74.7469 18.7709 75.1634 18.2876C75.2821 18.1497 75.3558 18.0136 75.5045 17.9079L76.4125 18.1697C76.5038 18.1982 76.6238 18.2389 76.7199 18.2627C76.7338 18.2076 76.9104 17.9317 77.0911 17.6165C77.2582 17.3253 77.4533 16.2149 77.5026 16H73.7726C73.0026 17 72.0785 17.5 70.5026 17.5Z" fill="white"/>
<path fill-rule="evenodd" clip-rule="evenodd" d="M13.0993 21.4294C11.5409 21.4294 10.5875 21.2957 9.24221 20.6689L7.46497 19.527C6.28501 18.5748 5.14594 16.8307 4.79791 15.2944C4.14371 12.4064 4.74637 10.2588 6.44148 7.97799C6.60009 7.76454 6.74703 7.63981 6.92931 7.45744C7.97419 6.41233 9.23243 5.66047 10.7108 5.29456C13.4724 4.61104 16.1122 5.27281 18.1817 7.11189C18.9888 7.82922 19.7548 8.7306 20.1657 9.74543C20.2571 9.97136 20.3796 10.2098 20.4691 10.4504C21.5707 13.4132 20.7243 16.8595 18.6323 18.9481C17.9825 19.5969 17.9979 19.5518 17.3085 20.0658L16.3219 20.6183C16.0674 20.7262 15.9052 20.8223 15.6246 20.9295C14.8999 21.2067 13.9302 21.4294 13.0992 21.4294L13.0993 21.4294ZM10.7109 2.74707C10.2897 2.75648 9.50157 3.07007 9.06563 3.1717L7.48599 1.61989C7.05589 1.8534 6.65873 2.03082 6.25557 2.27235L5.08502 3.01251C5.25322 3.7344 5.55204 4.45938 5.7219 5.18853C5.37751 5.41915 4.58701 6.35621 4.50113 6.35621C4.094 6.35621 2.85826 5.86536 2.3782 5.82543C2.03073 6.34434 1.19857 7.5818 1.05132 8.2138C1.22057 8.46655 2.59045 9.68561 2.59045 9.75294C2.59045 9.96951 2.53223 10.0533 2.47776 10.224C2.18945 11.128 2.38341 11.3864 1.94655 11.4974C1.29233 11.6636 0.681841 11.8332 0.0428691 11.9821C0.0428691 13.1971 -0.0558458 13.0281 0.0463175 14.4201C0.0586099 14.5875 0.0918978 14.6119 0.0959562 14.7951L2.04295 15.2365C2.36208 15.3273 2.21703 15.3623 2.41242 16.0346C2.50767 16.3623 2.62707 16.6724 2.69665 16.9711L1.14438 18.4972C1.22325 18.7927 1.6262 19.4783 1.7838 19.7416C2.02979 20.1524 2.28002 20.5143 2.53744 20.8986C3.10852 20.7656 4.08755 20.4076 4.71346 20.2617C4.84034 20.5016 5.32266 20.9819 5.56267 21.164C5.62511 21.2113 5.88112 21.4033 5.88112 21.4825C5.88112 21.5964 5.35393 23.4874 5.29725 23.6054L6.44174 24.3186C6.74333 24.5017 7.39227 24.8516 7.73873 24.9323C7.99676 24.7596 9.15269 23.3932 9.27787 23.3932C9.5144 23.3932 10.3793 23.7647 10.9232 23.7647L11.507 25.9408C12.326 25.9408 13.3364 26.1044 14.2669 25.8877C14.3673 25.6786 14.4641 25.0969 14.5323 24.8261C14.8879 23.4136 14.5193 23.8755 15.6407 23.5462C15.7687 23.5086 15.9018 23.4782 16.0526 23.4275C16.2202 23.3711 16.2911 23.3224 16.4429 23.287C16.701 23.4598 17.8569 24.8262 17.9822 24.8262C18.1554 24.8262 18.4828 24.6328 18.6197 24.5615L20.3705 23.4993C20.3705 23.2193 20.3141 23.162 20.2454 22.9344C19.5788 20.7274 19.684 21.5227 20.4114 20.7273C20.6188 20.5005 20.7476 20.2764 21.0074 20.1025L22.5934 20.5333C22.7528 20.5802 22.9625 20.6472 23.1303 20.6864C23.1771 20.5111 24.2866 18.9771 24.4572 18.2449L23.0937 16.9547C22.9863 16.8644 22.9786 16.8349 22.865 16.7588C22.9865 16.2372 23.2405 15.6495 23.2896 15.0604L25.4656 14.4766L25.4126 11.7167C24.6955 11.5497 23.9535 11.353 23.2365 11.1859C23.2274 10.7772 22.8119 9.62628 22.8119 9.5937C22.8119 9.37548 24.1516 8.24639 24.3511 7.94844C24.1331 7.53654 23.9426 7.12907 23.7124 6.72944C23.6355 6.59592 23.0079 5.61311 22.9181 5.61311C22.6543 5.61311 21.075 6.19697 20.8481 6.19697C20.7826 6.19697 19.9592 5.287 19.5744 5.02929C19.6535 4.86418 20.1535 3.06031 20.1582 2.85327C19.595 2.55525 18.4827 1.70484 17.7167 1.52639L16.9877 2.33656C16.7674 2.55569 16.3848 2.88839 16.2306 3.11863C15.9037 3.04249 15.605 2.91454 15.244 2.83152C14.2941 2.61312 14.6683 2.98417 14.0701 0.767822C13.996 0.49333 13.9577 0.512496 13.6339 0.513997C13.1979 0.516132 12.7614 0.474633 12.4564 0.508414C11.0838 0.660427 11.283 0.0314953 10.8302 2.17643C10.7862 2.385 10.7264 2.56019 10.7108 2.74709L10.7109 2.74707Z" fill="#00A2FE"/>
<path fill-rule="evenodd" clip-rule="evenodd" d="M12.6747 6.14389C14.5522 6.14389 16.288 6.856 17.5981 8.06718C18.7807 9.16055 19.7867 11.1616 19.7867 12.7782C19.7867 14.1564 19.7161 15.0543 19.097 16.2814C17.855 18.7428 15.6371 20.2617 12.5155 20.2617C9.93938 20.2617 7.22705 18.4219 6.28262 16.0389C6.00785 15.3456 5.80814 14.7683 5.72948 13.9914L5.66995 13.1543C5.68048 12.9549 5.71013 13.0102 5.72146 12.7778C5.76648 11.8553 5.91504 11.1519 6.32351 10.3015C6.43871 10.0616 6.46199 9.9578 6.60089 9.72962C7.39004 8.4334 8.40778 7.40984 9.80926 6.78133C10.5324 6.45713 11.6366 6.14389 12.6747 6.14389H12.6747ZM12.6747 21.0048C14.7737 21.0048 16.1374 20.3921 17.6342 19.2768C19.2028 18.1079 20.5298 15.6157 20.5298 13.6805C20.5298 12.1789 20.4426 11.1608 19.7692 9.82364C19.5429 9.37429 19.337 9.00934 19.0514 8.63071C16.8115 5.66199 13.0904 4.55929 9.58082 6.07525C9.06083 6.29984 8.19435 6.82002 7.77894 7.19252L6.3811 8.71378C5.4606 9.98619 5.03421 11.4347 4.93327 13.1578C4.84506 14.6639 5.6645 16.9795 6.71785 18.1513C6.8876 18.3401 7.01371 18.5034 7.19444 18.6831C8.39077 19.8725 10.3111 21.0048 12.6747 21.0048H12.6747Z" stroke="#3B82F6" stroke-width="0.674935" stroke-miterlimit="22.9256"/>
<path d="M9.58105 6.07626C13.0901 4.56055 16.8112 5.66275 19.0508 8.63095C19.3364 9.0095 19.5423 9.37499 19.7686 9.82431C20.4417 11.1611 20.5283 12.1793 20.5283 13.6808C20.5283 14.6481 20.1967 15.7549 19.6689 16.7657C19.1413 17.7764 18.4177 18.6912 17.6338 19.2755C16.1372 20.3907 14.7734 21.004 12.6748 21.004C10.3118 21.004 8.3915 19.8718 7.19531 18.6827C7.01462 18.5031 6.88856 18.3394 6.71875 18.1505C6.19221 17.5647 5.72391 16.6929 5.39844 15.7794C5.07306 14.8661 4.89058 13.911 4.93457 13.1583C5.03549 11.4356 5.4617 9.98702 6.38184 8.71494L7.78027 7.19345L7.7793 7.19247C8.19463 6.82013 9.06123 6.30082 9.58105 6.07626ZM12.2832 6.15634C11.3663 6.22073 10.4414 6.49663 9.80859 6.78036C8.40701 7.40897 7.38881 8.43237 6.59961 9.72861C6.46068 9.95685 6.43739 10.0611 6.32227 10.3009C5.91378 11.1513 5.76575 11.8549 5.7207 12.7774C5.71504 12.8935 5.70446 12.9385 5.69434 12.9786C5.68422 13.0186 5.6742 13.055 5.66895 13.1544L5.72852 13.9913C5.80718 14.7683 6.00651 15.3459 6.28125 16.0392C7.22586 18.4226 9.93904 20.2628 12.5156 20.2628C15.6375 20.2627 17.8555 18.7438 19.0977 16.2823C19.7169 15.055 19.7881 14.1566 19.7881 12.7784C19.7881 11.9699 19.5361 11.0648 19.1367 10.2257C18.7373 9.38668 18.19 8.61323 17.5986 8.0665C16.3704 6.93093 14.7681 6.23422 13.0254 6.15146L12.6748 6.14267L12.2832 6.15634Z" fill="#00A2FE" stroke="#3B82F6" stroke-width="0.00234588"/>
<path fill-rule="evenodd" clip-rule="evenodd" d="M6.14655 12.8314C6.42294 12.6463 6.80877 11.9397 8.12701 11.1497C8.42482 10.9713 8.63206 10.8594 8.97416 10.723C9.54705 10.4947 10.2648 10.2894 10.979 10.2333C11.716 10.1755 12.7062 10.2307 13.4709 10.2307C13.3418 9.87409 12.0406 9.21874 11.7424 9.09312C10.5284 8.5816 9.49853 8.47967 8.19938 8.67442C7.74257 8.7429 7.62138 9.04672 7.2832 9.50972C7.16154 9.67623 7.03181 9.89794 6.94199 10.0708C6.5388 10.8463 6.23733 11.7406 6.14655 12.8314Z" stroke="#3B82F6" stroke-width="0.674935" stroke-miterlimit="22.9256"/>
<path d="M8.19928 8.67595C9.49824 8.48122 10.5284 8.58249 11.7422 9.09392C11.8913 9.15675 12.2905 9.35239 12.669 9.57634C12.8583 9.68838 13.0428 9.80756 13.1876 9.92107C13.2599 9.97782 13.3227 10.0329 13.3712 10.0851C13.4187 10.1364 13.4524 10.185 13.4688 10.2287C12.7045 10.2286 11.715 10.1749 10.9786 10.2326C10.2644 10.2887 9.54656 10.4936 8.97369 10.7218C8.63152 10.8582 8.42388 10.9702 8.12604 11.1486C7.46696 11.5436 7.04099 11.9184 6.74518 12.217C6.5975 12.366 6.4823 12.4963 6.38678 12.6008C6.29209 12.7043 6.21592 12.7819 6.14752 12.8283C6.23861 11.7391 6.54068 10.8461 6.94342 10.0715C7.03323 9.89865 7.16264 9.67636 7.28424 9.50993C7.36864 9.39436 7.43998 9.28901 7.50592 9.1945C7.57197 9.09985 7.63255 9.01564 7.69733 8.9445C7.82677 8.80239 7.97139 8.71018 8.19928 8.67595Z" fill="#E6E6E6" stroke="#3B82F6" stroke-width="0.00234588"/>
<path fill-rule="evenodd" clip-rule="evenodd" d="M12.3563 19.7841C12.1065 19.411 11.0714 18.8844 10.2557 16.9488C9.67895 15.5801 9.75561 14.3912 9.75561 12.5128C9.572 12.5793 9.58628 12.6663 9.37145 12.9248C8.47006 14.0092 8.01653 15.9056 8.17082 17.3883C8.18255 17.501 8.24535 17.9694 8.29832 18.0569C8.33156 18.1117 8.68875 18.4169 8.74636 18.4581C9.73743 19.1676 11.046 19.7841 12.3563 19.7841H12.3563Z" stroke="#3B82F6" stroke-width="0.674935" stroke-miterlimit="22.9256"/>
<path d="M9.75342 12.5138C9.75339 14.3916 9.67767 15.5807 10.2544 16.9494C10.6623 17.9172 11.1251 18.533 11.5171 18.9533C11.7131 19.1634 11.8917 19.3251 12.0366 19.4572C12.1803 19.5881 12.2914 19.6899 12.354 19.7824C11.0448 19.7817 9.73697 19.1662 8.74658 18.4572C8.71744 18.4362 8.61442 18.3498 8.51416 18.2619C8.46391 18.2178 8.41451 18.1728 8.37549 18.1359C8.36513 18.1261 8.35586 18.1162 8.34717 18.1076C8.33368 18.0943 8.32235 18.0828 8.31396 18.0734C8.3074 18.066 8.30196 18.0602 8.29932 18.0558C8.29283 18.045 8.28554 18.0282 8.27881 18.007C8.27205 17.9857 8.26599 17.9596 8.25928 17.9308C8.24578 17.8729 8.2321 17.8026 8.22021 17.7316C8.19645 17.5896 8.17822 17.4441 8.17236 17.3878C8.0182 15.9055 8.47156 14.0101 9.37256 12.9259C9.47999 12.7967 9.53052 12.7099 9.57666 12.6476C9.5997 12.6166 9.62125 12.5909 9.64893 12.5695C9.67617 12.5484 9.7088 12.5302 9.75342 12.5138Z" fill="#E6E6E6" stroke="#3B82F6" stroke-width="0.00234588"/>
<path fill-rule="evenodd" clip-rule="evenodd" d="M13.0463 19.784C14.2368 19.784 15.4288 19.3121 16.3479 18.7335C16.564 18.5974 17.0065 18.2747 17.133 18.0857L16.1246 18.1388C14.1323 18.1388 12.507 17.2018 11.2815 15.9759C11.0648 15.7592 10.3397 15.2457 10.1165 15.186C10.1013 15.379 10.1759 16.7758 11.4452 18.3599C11.7441 18.733 12.7955 19.784 13.0463 19.784Z" stroke="#3B82F6" stroke-width="0.674935" stroke-miterlimit="22.9256"/>
<path d="M10.1179 15.187C10.1736 15.2023 10.2602 15.2458 10.3621 15.3052C10.4647 15.365 10.5829 15.4416 10.7009 15.5229C10.9372 15.6859 11.1727 15.8688 11.281 15.9771C12.5066 17.2029 14.1322 18.1401 16.1248 18.1401L17.1306 18.0864C17.0669 18.1806 16.9257 18.3076 16.7732 18.4282C16.6198 18.5495 16.4554 18.6649 16.3474 18.7329C15.4286 19.3113 14.2367 19.7826 13.0466 19.7827C13.0156 19.7827 12.9719 19.7662 12.9187 19.7368C12.8654 19.7074 12.8024 19.665 12.7332 19.6128C12.5947 19.5085 12.4301 19.366 12.2644 19.2114C11.9328 18.902 11.5954 18.5454 11.446 18.3589C10.179 16.7774 10.103 15.3829 10.1179 15.187Z" fill="#E6E6E6" stroke="#3B82F6" stroke-width="0.00234588"/>
<path fill-rule="evenodd" clip-rule="evenodd" d="M7.84487 17.6081C7.84487 17.2679 7.79185 17.1697 7.79185 16.8651C7.79185 15.7277 8.08511 14.4403 8.61756 13.4979C8.70715 13.3394 8.76971 13.2428 8.85552 13.099C9.4975 12.0232 10.7552 11.1171 11.1356 10.5491C9.71438 10.5808 8.04598 11.3765 7.03521 12.3932L6.23196 13.3439C6.08278 13.5606 6.15473 13.4302 6.2035 14.0481C6.30393 15.3218 7.02677 16.6668 7.84487 17.6081V17.6081Z" stroke="#3B82F6" stroke-width="0.674935" stroke-miterlimit="22.9256"/>
<path d="M11.1329 10.5501C11.0378 10.6915 10.8887 10.8546 10.7081 11.0354C10.5267 11.217 10.3138 11.4172 10.0928 11.6331C9.65074 12.065 9.17559 12.5601 8.85455 13.0979C8.76876 13.2417 8.70587 13.3388 8.61627 13.4974C8.08376 14.44 7.79108 15.728 7.79108 16.8655C7.7911 17.0174 7.80422 17.118 7.81744 17.2229C7.83061 17.3274 7.84266 17.4367 7.84283 17.6048C7.02589 16.6639 6.30548 15.3201 6.20514 14.0481C6.19294 13.8936 6.17931 13.7854 6.16803 13.7073C6.15677 13.6294 6.1473 13.581 6.14459 13.5452C6.14193 13.5097 6.14594 13.4869 6.15924 13.4593C6.17262 13.4316 6.19536 13.3989 6.23248 13.345L7.03619 12.3938C8.04615 11.3781 9.71269 10.5827 11.1329 10.5501Z" fill="#E6E6E6" stroke="#3B82F6" stroke-width="0.00234588"/>
<path fill-rule="evenodd" clip-rule="evenodd" d="M14.3731 15.8566C14.8006 15.8566 15.4829 15.7001 15.8135 15.5985C17.1571 15.1855 18.5187 14.2127 19.2615 13.0456C19.5666 12.5661 18.8348 10.5403 18.4175 9.84848C18.2707 9.60512 17.8772 8.99355 17.6638 8.85071C17.6638 10.9548 17.5423 12.1455 16.2543 13.8633C15.8216 14.4405 14.593 15.5282 14.3731 15.8566L14.3731 15.8566Z" stroke="#3B82F6" stroke-width="0.674935" stroke-miterlimit="22.9256"/>
<path d="M17.6641 8.85266C17.7171 8.8884 17.7811 8.9528 17.8497 9.03333C17.9188 9.1145 17.9928 9.21207 18.0645 9.31262C18.2077 9.51353 18.3427 9.72702 18.4161 9.84875C18.6247 10.1946 18.9125 10.8747 19.1094 11.5275C19.2079 11.8537 19.2833 12.1736 19.3155 12.4415C19.3316 12.5754 19.3375 12.6965 19.3292 12.799C19.3208 12.9014 19.2988 12.9854 19.2608 13.045C18.5182 14.2119 17.1568 15.1848 15.8135 15.5978C15.4836 15.6992 14.8025 15.8541 14.3751 15.8546C14.4306 15.7725 14.5488 15.6442 14.7003 15.4884C14.853 15.3314 15.0403 15.1466 15.2344 14.9542C15.623 14.5693 16.0384 14.153 16.2549 13.8644C16.899 13.0054 17.252 12.2777 17.4434 11.5021C17.6347 10.727 17.6641 9.90371 17.6641 8.85266Z" fill="#E6E6E6" stroke="#3B82F6" stroke-width="0.00234588"/>
<path fill-rule="evenodd" clip-rule="evenodd" d="M8.37567 8.3199L9.54334 8.26689C10.9818 8.26689 12.7535 9.06318 13.6175 9.87171C13.7367 9.9833 13.7802 10.0489 13.9179 10.1551C14.3776 10.5102 14.9808 11.2891 15.3816 11.5575C15.3816 10.0992 14.5157 8.43288 13.5388 7.45591C13.3785 7.2956 13.2553 7.21776 13.086 7.05946C12.5041 6.51521 12.4018 6.61717 11.8783 6.67424C10.8638 6.78483 8.87802 7.56978 8.37572 8.3199H8.37567Z" stroke="#3B82F6" stroke-width="0.674935" stroke-miterlimit="22.9256"/>
<path d="M12.4597 6.64204C12.6231 6.67738 12.7946 6.7879 13.0856 7.06001C13.1703 7.13917 13.2432 7.19899 13.3151 7.25826C13.387 7.31741 13.4579 7.37658 13.5378 7.4565C14.5138 8.43255 15.3783 10.097 15.3796 11.5542C15.1798 11.4195 14.9297 11.1595 14.6725 10.8881C14.4142 10.6155 14.1486 10.3314 13.9186 10.1538C13.85 10.1007 13.8043 10.0577 13.7614 10.0141C13.7186 9.97063 13.6773 9.92623 13.6179 9.87056C13.1858 9.46634 12.5271 9.06517 11.7966 8.76509C11.0658 8.46496 10.263 8.26612 9.54364 8.26607L8.37762 8.31783C8.50329 8.13127 8.72145 7.94313 8.99286 7.76314C9.26541 7.5824 9.5923 7.41014 9.93524 7.25826C10.6212 6.95446 11.3715 6.73052 11.8786 6.67525C11.9438 6.66813 12.0025 6.65995 12.0563 6.65279C12.1102 6.64562 12.1597 6.63974 12.2057 6.63521C12.2978 6.62615 12.3781 6.62447 12.4597 6.64204Z" fill="#E6E6E6" stroke="#3B82F6" stroke-width="0.00234588"/>
<path fill-rule="evenodd" clip-rule="evenodd" d="M12.0378 16.175C12.0948 16.3325 12.1694 16.3543 12.3859 16.5169C13.7174 17.5164 15.3134 17.9637 17.065 17.7523C17.5976 17.688 17.7113 17.6363 18.1318 17.0147C18.2769 16.8001 18.3637 16.6607 18.4968 16.4242C18.9085 15.6928 19.309 14.688 19.309 13.5743L18.7377 14.2237C17.7275 15.2338 16.023 16.0987 14.5326 16.1753C13.7467 16.2158 12.8375 16.175 12.0378 16.175L12.0378 16.175Z" stroke="#3B82F6" stroke-width="0.674935" stroke-miterlimit="22.9256"/>
<path d="M19.3073 13.5773C19.3067 14.5502 19.0011 15.4401 18.6491 16.1368L18.4958 16.4239C18.3628 16.6603 18.2756 16.7993 18.1306 17.0138C17.9203 17.3246 17.7867 17.4934 17.6393 17.5919C17.4922 17.6901 17.331 17.719 17.0651 17.7511C15.3138 17.9625 13.7176 17.515 12.3864 16.5157C12.3493 16.4879 12.3162 16.4644 12.2868 16.4435C12.2623 16.426 12.2413 16.4091 12.2214 16.3946C12.1955 16.3758 12.1726 16.3597 12.153 16.3429C12.1006 16.2978 12.0671 16.2538 12.0388 16.1759C12.8382 16.1759 13.7473 16.2173 14.5329 16.1769C16.0235 16.1001 17.7287 15.2349 18.739 14.2247L19.3073 13.5773Z" fill="#E6E6E6" stroke="#3B82F6" stroke-width="0.00234588"/>
<path fill-rule="evenodd" clip-rule="evenodd" d="M15.7531 13.9459C17.0312 12.4754 17.5695 10.6039 17.2718 8.65884C17.2066 8.23295 16.9363 8.08258 16.4326 7.74655C15.5428 7.15316 14.2147 6.62158 13.1524 6.62158C13.2242 6.8199 13.1251 6.62911 13.2658 6.77359C13.3105 6.8196 13.3765 6.87785 13.4308 6.92706C13.7949 7.25725 14.0071 7.43743 14.3354 7.88003C14.6954 8.36528 15.0126 8.85268 15.2539 9.45604C15.8098 10.8463 15.7531 12.0595 15.7531 13.9459H15.7531Z" stroke="#3B82F6" stroke-width="0.674935" stroke-miterlimit="22.9256"/>
<path d="M13.1534 6.62256C14.2151 6.62288 15.5423 7.15447 16.4317 7.74756C16.6835 7.9155 16.8771 8.0368 17.0157 8.16943C17.1541 8.30203 17.238 8.4462 17.2706 8.65869C17.5681 10.6022 17.0301 12.4721 15.754 13.9419C15.754 12.0578 15.8106 10.8451 15.2549 9.45557C15.0136 8.8521 14.696 8.36467 14.336 7.87939C14.0077 7.43683 13.7957 7.25635 13.4317 6.92627C13.3774 6.87707 13.3114 6.8189 13.2667 6.77295C13.2315 6.73682 13.2111 6.72096 13.1993 6.71533C13.1935 6.7126 13.1893 6.71264 13.1866 6.71338C13.1849 6.71388 13.1834 6.71436 13.1827 6.71533C13.1824 6.71373 13.1824 6.71143 13.1817 6.7085C13.1787 6.69628 13.171 6.67138 13.1534 6.62256ZM13.1934 6.71631C13.187 6.71437 13.1857 6.71539 13.1846 6.71729C13.1851 6.7165 13.1862 6.7157 13.1876 6.71533C13.1889 6.71503 13.1907 6.71548 13.1934 6.71631Z" fill="#E6E6E6" stroke="#3B82F6" stroke-width="0.00234588"/>
</svg>
