<svg width="183" height="28" viewBox="0 0 183 28" fill="none" xmlns="http://www.w3.org/2000/svg">
<path d="M33.7668 6.45455H37.5594L41.5651 16.2273H41.7355L45.7412 6.45455H49.5338V21H46.5509V11.5327H46.4301L42.6659 20.929H40.6347L36.8705 11.4972H36.7497V21H33.7668V6.45455ZM51.5675 21V6.45455H61.3687V8.99006H54.6428V12.456H60.8644V14.9915H54.6428V18.4645H61.3971V21H51.5675ZM79.8293 21V6.45455H82.9046V12.456H89.1474V6.45455H92.2156V21H89.1474V14.9915H82.9046V21H79.8293ZM112.542 11.5469H109.431C109.374 11.1444 109.258 10.7869 109.083 10.4744C108.908 10.1572 108.683 9.88731 108.408 9.66477C108.134 9.44223 107.817 9.27178 107.457 9.15341C107.102 9.03504 106.716 8.97585 106.299 8.97585C105.546 8.97585 104.89 9.16288 104.332 9.53693C103.773 9.90625 103.34 10.446 103.032 11.1562C102.724 11.8617 102.57 12.7187 102.57 13.7273C102.57 14.7642 102.724 15.6354 103.032 16.3409C103.345 17.0464 103.78 17.5791 104.339 17.9389C104.898 18.2988 105.544 18.4787 106.278 18.4787C106.69 18.4787 107.071 18.4242 107.421 18.3153C107.776 18.2064 108.091 18.0478 108.366 17.8395C108.64 17.6264 108.868 17.3684 109.048 17.0653C109.232 16.7623 109.36 16.4167 109.431 16.0284L112.542 16.0426C112.461 16.7102 112.26 17.3542 111.938 17.9744C111.621 18.59 111.193 19.1416 110.653 19.6293C110.118 20.1122 109.479 20.4957 108.735 20.7798C107.997 21.0592 107.161 21.1989 106.228 21.1989C104.931 21.1989 103.771 20.9053 102.748 20.3182C101.73 19.7311 100.925 18.8812 100.333 17.7685C99.7461 16.6558 99.4525 15.3087 99.4525 13.7273C99.4525 12.1411 99.7508 10.7917 100.347 9.67898C100.944 8.56629 101.754 7.71875 102.776 7.13636C103.799 6.54924 104.95 6.25568 106.228 6.25568C107.071 6.25568 107.852 6.37405 108.572 6.6108C109.296 6.84754 109.938 7.19318 110.497 7.64773C111.055 8.09754 111.51 8.64915 111.86 9.30256C112.215 9.95597 112.443 10.7041 112.542 11.5469ZM116.481 21H113.185L118.207 6.45455H122.17L127.184 21H123.889L120.245 9.77841H120.131L116.481 21ZM116.275 15.2827H124.059V17.6832H116.275V15.2827ZM128.435 21V6.45455H134.173C135.277 6.45455 136.216 6.66525 136.993 7.08665C137.769 7.50331 138.361 8.08333 138.769 8.8267C139.18 9.56534 139.386 10.4176 139.386 11.3835C139.386 12.3494 139.178 13.2017 138.761 13.9403C138.345 14.679 137.741 15.2543 136.95 15.6662C136.164 16.0781 135.213 16.2841 134.095 16.2841H130.438V13.8196H133.598C134.19 13.8196 134.678 13.7178 135.061 13.5142C135.449 13.3059 135.738 13.0194 135.928 12.6548C136.122 12.2855 136.219 11.8617 136.219 11.3835C136.219 10.9006 136.122 10.4792 135.928 10.1193C135.738 9.75473 135.449 9.47301 135.061 9.27415C134.673 9.07055 134.18 8.96875 133.584 8.96875H131.51V21H128.435ZM143.959 6.45455V21H140.884V6.45455H143.959ZM145.435 8.99006V6.45455H157.381V8.99006H152.928V21H149.889V8.99006H145.435ZM159.579 21H156.283L161.304 6.45455H165.267L170.282 21H166.986L163.343 9.77841H163.229L159.579 21ZM159.373 15.2827H167.157V17.6832H159.373V15.2827ZM171.532 21V6.45455H174.608V18.4645H180.843V21H171.532Z" fill="white"/>
<path d="M95.9628 21.1847C95.494 21.1847 95.0916 21.0189 94.7554 20.6875C94.424 20.3513 94.2582 19.9489 94.2582 19.4801C94.2582 19.0161 94.424 18.6184 94.7554 18.2869C95.0916 17.9555 95.494 17.7898 95.9628 17.7898C96.4173 17.7898 96.8151 17.9555 97.156 18.2869C97.4969 18.6184 97.6673 19.0161 97.6673 19.4801C97.6673 19.7926 97.5868 20.0791 97.4259 20.3395C97.2696 20.5952 97.0636 20.8011 96.808 20.9574C96.5523 21.1089 96.2706 21.1847 95.9628 21.1847Z" fill="#00A2FE"/>
<path fill-rule="evenodd" clip-rule="evenodd" d="M70.5026 17.5C69.8462 17.459 69.7727 17.3809 69.0026 17C67.6762 16.3299 67.5026 15.5 67.1658 14.9506C66.9267 13.856 66.9675 12.6783 67.692 11.6181C68.1998 10.8751 68.8851 10.3444 69.7314 10.122C70.3146 9.91845 71.2869 9.92456 72.5026 10.5C72.7869 10.6346 73.115 10.6828 73.7726 11.5H77.5026C77.5056 11.4956 77.511 11.9659 77.511 11.4874C77.3862 11.2371 77.1849 10.0235 77.0531 9.78066C77.0091 9.69951 76.6498 9.10224 76.5984 9.10224C76.4474 9.10224 75.5432 9.45708 75.4134 9.45708C75.3758 9.45708 74.9045 8.90407 74.6841 8.74745C74.7295 8.6471 75.0157 7.55086 75.0184 7.42502C74.696 7.24391 74.0592 6.72709 73.6207 6.61864L73.2033 7.111C73.0772 7.24418 72.8582 7.44637 72.7699 7.58629C72.5828 7.54001 72.4117 7.46225 72.205 7.4118C71.6613 7.27908 71.8755 7.50457 71.533 6.15764C71.4906 5.99081 71.4687 6.00248 71.2833 6.00339C71.0337 6.00468 70.7838 5.97947 70.6092 6C69.8234 6.09238 69.9374 5.71016 69.6782 7.0137C69.653 7.14045 69.6188 7.24692 69.6099 7.3605C69.3688 7.36621 68.9175 7.5568 68.668 7.61856L67.7636 6.67548C67.5174 6.81739 67.29 6.92521 67.0592 7.072L66.3891 7.5218C66.4854 7.96051 66.6565 8.4011 66.7537 8.84423C66.5566 8.98437 66.104 9.55385 66.0549 9.55385C65.8218 9.55385 65.1143 9.25555 64.8395 9.23129C64.6406 9.54665 64.1642 10.2987 64.0799 10.6828C64.1768 10.8364 64.961 11.5772 64.961 11.6181C64.961 11.7498 64.9277 11.8007 64.8965 11.9044C64.7315 12.4538 64.8425 12.6108 64.5924 12.6783C64.2179 12.7793 63.8684 12.8824 63.5026 12.9728C63.5026 13.7112 63.446 13.6085 63.5045 14.4545C63.5116 14.5562 63.5306 14.571 63.533 14.6824L64.6476 14.9506C64.8303 15.0058 64.7472 15.0271 64.8591 15.4357C64.9136 15.6348 64.982 15.8233 65.0218 16.0048L64.1332 16.9323C64.1783 17.1119 64.409 17.5285 64.4992 17.6885C64.64 17.9382 64.7833 18.1581 64.9307 18.3917C65.2576 18.3108 65.8181 18.0933 66.1764 18.0046C66.2491 18.1504 66.5252 18.4423 66.6626 18.5529C66.6983 18.5817 66.8449 18.6984 66.8449 18.7465C66.8449 18.8157 66.5431 19.9649 66.5106 20.0367L67.1658 20.4701C67.3385 20.5813 67.71 20.794 67.9084 20.8431C68.0561 20.7381 68.7178 19.9077 68.7895 19.9077C68.9249 19.9077 69.42 20.1334 69.7314 20.1334L70.0657 21.4559C70.5345 21.4559 71.113 21.5554 71.6457 21.4236C71.7031 21.2966 71.7585 20.9431 71.7976 20.7785C72.0012 19.9201 71.7902 20.2008 72.4321 20.0007C72.5054 19.9779 72.5816 19.9593 72.668 19.9285C72.7639 19.8943 72.8045 19.8647 72.8914 19.8431C73.0391 19.9481 73.7009 20.7786 73.7726 20.7786C73.8718 20.7786 74.0592 20.661 74.1376 20.6177L75.1399 19.9722C75.1399 19.802 75.1076 19.7672 75.0683 19.6289C74.6867 18.2876 74.7469 18.7709 75.1634 18.2876C75.2821 18.1497 75.3558 18.0136 75.5045 17.9079L76.4125 18.1697C76.5038 18.1982 76.6238 18.2389 76.7199 18.2627C76.7338 18.2076 76.9104 17.9317 77.0911 17.6165C77.2582 17.3253 77.4533 16.2149 77.5026 16H73.7726C73.0026 17 72.0785 17.5 70.5026 17.5Z" fill="white"/>
<path fill-rule="evenodd" clip-rule="evenodd" d="M13.0993 21.4294C11.5409 21.4294 10.5875 21.2957 9.24221 20.6689L7.46497 19.527C6.28501 18.5748 5.14594 16.8307 4.79791 15.2944C4.14371 12.4064 4.74637 10.2588 6.44148 7.97799C6.60009 7.76454 6.74703 7.63981 6.92931 7.45744C7.97419 6.41233 9.23243 5.66047 10.7108 5.29456C13.4724 4.61104 16.1122 5.27281 18.1817 7.11189C18.9888 7.82922 19.7548 8.7306 20.1657 9.74543C20.2571 9.97136 20.3796 10.2098 20.4691 10.4504C21.5707 13.4132 20.7243 16.8595 18.6323 18.9481C17.9825 19.5969 17.9979 19.5518 17.3085 20.0658L16.3219 20.6183C16.0674 20.7262 15.9052 20.8223 15.6246 20.9295C14.8999 21.2067 13.9302 21.4294 13.0992 21.4294L13.0993 21.4294ZM10.7109 2.74707C10.2897 2.75648 9.50157 3.07007 9.06563 3.1717L7.48599 1.61989C7.05589 1.8534 6.65873 2.03082 6.25557 2.27235L5.08502 3.01251C5.25322 3.7344 5.55204 4.45938 5.7219 5.18853C5.37751 5.41915 4.58701 6.35621 4.50113 6.35621C4.094 6.35621 2.85826 5.86536 2.3782 5.82543C2.03073 6.34434 1.19857 7.5818 1.05132 8.2138C1.22057 8.46655 2.59045 9.68561 2.59045 9.75294C2.59045 9.96951 2.53223 10.0533 2.47776 10.224C2.18945 11.128 2.38341 11.3864 1.94655 11.4974C1.29233 11.6636 0.681841 11.8332 0.0428691 11.9821C0.0428691 13.1971 -0.0558458 13.0281 0.0463175 14.4201C0.0586099 14.5875 0.0918978 14.6119 0.0959562 14.7951L2.04295 15.2365C2.36208 15.3273 2.21703 15.3623 2.41242 16.0346C2.50767 16.3623 2.62707 16.6724 2.69665 16.9711L1.14438 18.4972C1.22325 18.7927 1.6262 19.4783 1.7838 19.7416C2.02979 20.1524 2.28002 20.5143 2.53744 20.8986C3.10852 20.7656 4.08755 20.4076 4.71346 20.2617C4.84034 20.5016 5.32266 20.9819 5.56267 21.164C5.62511 21.2113 5.88112 21.4033 5.88112 21.4825C5.88112 21.5964 5.35393 23.4874 5.29725 23.6054L6.44174 24.3186C6.74333 24.5017 7.39227 24.8516 7.73873 24.9323C7.99676 24.7596 9.15269 23.3932 9.27787 23.3932C9.5144 23.3932 10.3793 23.7647 10.9232 23.7647L11.507 25.9408C12.326 25.9408 13.3364 26.1044 14.2669 25.8877C14.3673 25.6786 14.4641 25.0969 14.5323 24.8261C14.8879 23.4136 14.5193 23.8755 15.6407 23.5462C15.7687 23.5086 15.9018 23.4782 16.0526 23.4275C16.2202 23.3711 16.2911 23.3224 16.4429 23.287C16.701 23.4598 17.8569 24.8262 17.9822 24.8262C18.1554 24.8262 18.4828 24.6328 18.6197 24.5615L20.3705 23.4993C20.3705 23.2193 20.3141 23.162 20.2454 22.9344C19.5788 20.7274 19.684 21.5227 20.4114 20.7273C20.6188 20.5005 20.7476 20.2764 21.0074 20.1025L22.5934 20.5333C22.7528 20.5802 22.9625 20.6472 23.1303 20.6864C23.1771 20.5111 24.2866 18.9771 24.4572 18.2449L23.0937 16.9547C22.9863 16.8644 22.9786 16.8349 22.865 16.7588C22.9865 16.2372 23.2405 15.6495 23.2896 15.0604L25.4656 14.4766L25.4126 11.7167C24.6955 11.5497 23.9535 11.353 23.2365 11.1859C23.2274 10.7772 22.8119 9.62628 22.8119 9.5937C22.8119 9.37548 24.1516 8.24639 24.3511 7.94844C24.1331 7.53654 23.9426 7.12907 23.7124 6.72944C23.6355 6.59592 23.0079 5.61311 22.9181 5.61311C22.6543 5.61311 21.075 6.19697 20.8481 6.19697C20.7826 6.19697 19.9592 5.287 19.5744 5.02929C19.6535 4.86418 20.1535 3.06031 20.1582 2.85327C19.595 2.55525 18.4827 1.70484 17.7167 1.52639L16.9877 2.33656C16.7674 2.55569 16.3848 2.88839 16.2306 3.11863C15.9037 3.04249 15.605 2.91454 15.244 2.83152C14.2941 2.61312 14.6683 2.98417 14.0701 0.767822C13.996 0.49333 13.9577 0.512496 13.6339 0.513997C13.1979 0.516132 12.7614 0.474633 12.4564 0.508414C11.0838 0.660427 11.283 0.0314953 10.8302 2.17643C10.7862 2.385 10.7264 2.56019 10.7108 2.74709L10.7109 2.74707Z" fill="#00A2FE"/>
<path fill-rule="evenodd" clip-rule="evenodd" d="M12.6747 6.14392C14.5522 6.14392 16.288 6.85603 17.5981 8.06721C18.7807 9.16058 19.7867 11.1617 19.7867 12.7782C19.7867 14.1565 19.7161 15.0543 19.097 16.2814C17.855 18.7428 15.6371 20.2618 12.5155 20.2618C9.93938 20.2618 7.22705 18.4219 6.28262 16.0389C6.00785 15.3456 5.80814 14.7683 5.72948 13.9914L5.66995 13.1543C5.68048 12.9549 5.71013 13.0102 5.72146 12.7779C5.76648 11.8553 5.91504 11.1519 6.32351 10.3015C6.43871 10.0616 6.46199 9.95783 6.60089 9.72965C7.39004 8.43343 8.40778 7.40987 9.80926 6.78136C10.5324 6.45716 11.6366 6.14392 12.6747 6.14392H12.6747ZM12.6747 21.0049C14.7737 21.0049 16.1374 20.3921 17.6342 19.2768C19.2028 18.1079 20.5298 15.6158 20.5298 13.6805C20.5298 12.1789 20.4426 11.1609 19.7692 9.82367C19.5429 9.37432 19.337 9.00937 19.0514 8.63074C16.8115 5.66202 13.0904 4.55932 9.58082 6.07528C9.06083 6.29987 8.19435 6.82005 7.77894 7.19255L6.3811 8.71381C5.4606 9.98622 5.03421 11.4348 4.93327 13.1578C4.84506 14.6639 5.6645 16.9795 6.71785 18.1513C6.8876 18.3402 7.01371 18.5035 7.19444 18.6831C8.39077 19.8725 10.3111 21.0049 12.6747 21.0049H12.6747Z" stroke="#3B82F6" stroke-width="0.674935" stroke-miterlimit="22.9256"/>
<path d="M9.58105 6.07629C13.0901 4.56058 16.8112 5.66278 19.0508 8.63098C19.3364 9.00953 19.5423 9.37502 19.7686 9.82434C20.4417 11.1611 20.5283 12.1794 20.5283 13.6808C20.5283 14.6481 20.1967 15.7549 19.6689 16.7657C19.1413 17.7764 18.4177 18.6912 17.6338 19.2755C16.1372 20.3907 14.7734 21.004 12.6748 21.004C10.3118 21.004 8.3915 19.8719 7.19531 18.6827C7.01462 18.5031 6.88856 18.3395 6.71875 18.1505C6.19221 17.5648 5.72391 16.693 5.39844 15.7794C5.07306 14.8661 4.89058 13.9111 4.93457 13.1583C5.03549 11.4356 5.4617 9.98705 6.38184 8.71497L7.78027 7.19348L7.7793 7.1925C8.19463 6.82016 9.06123 6.30085 9.58105 6.07629ZM12.2832 6.15637C11.3663 6.22076 10.4414 6.49666 9.80859 6.7804C8.40701 7.409 7.38881 8.4324 6.59961 9.72864C6.46068 9.95688 6.43739 10.0612 6.32227 10.3009C5.91378 11.1514 5.76575 11.855 5.7207 12.7775C5.71504 12.8936 5.70446 12.9386 5.69434 12.9786C5.68422 13.0186 5.6742 13.055 5.66895 13.1544L5.72852 13.9913C5.80718 14.7683 6.00651 15.346 6.28125 16.0392C7.22586 18.4226 9.93904 20.2628 12.5156 20.2628C15.6375 20.2628 17.8555 18.7438 19.0977 16.2823C19.7169 15.0551 19.7881 14.1566 19.7881 12.7784C19.7881 11.9699 19.5361 11.0648 19.1367 10.2257C18.7373 9.38671 18.19 8.61326 17.5986 8.06653C16.3704 6.93096 14.7681 6.23425 13.0254 6.15149L12.6748 6.1427L12.2832 6.15637Z" fill="#00A2FE" stroke="#3B82F6" stroke-width="0.00234588"/>
<path fill-rule="evenodd" clip-rule="evenodd" d="M6.14655 12.8314C6.42294 12.6463 6.80877 11.9397 8.12701 11.1497C8.42482 10.9713 8.63206 10.8594 8.97416 10.7231C9.54705 10.4948 10.2648 10.2894 10.979 10.2333C11.716 10.1755 12.7062 10.2307 13.4709 10.2307C13.3418 9.8741 12.0406 9.21875 11.7424 9.09313C10.5284 8.58161 9.49853 8.47968 8.19938 8.67444C7.74257 8.74292 7.62138 9.04673 7.2832 9.50974C7.16154 9.67625 7.03181 9.89796 6.94199 10.0708C6.5388 10.8464 6.23733 11.7406 6.14655 12.8314Z" stroke="#3B82F6" stroke-width="0.674935" stroke-miterlimit="22.9256"/>
<path d="M8.19928 8.67596C9.49824 8.48124 10.5284 8.5825 11.7422 9.09393C11.8913 9.15677 12.2905 9.35241 12.669 9.57635C12.8583 9.6884 13.0428 9.80758 13.1876 9.92108C13.2599 9.97783 13.3227 10.0329 13.3712 10.0851C13.4187 10.1364 13.4524 10.185 13.4688 10.2287C12.7045 10.2286 11.715 10.1749 10.9786 10.2326C10.2644 10.2887 9.54656 10.4936 8.97369 10.7219C8.63152 10.8582 8.42388 10.9702 8.12604 11.1486C7.46696 11.5436 7.04099 11.9184 6.74518 12.217C6.5975 12.366 6.4823 12.4963 6.38678 12.6008C6.29209 12.7043 6.21592 12.7819 6.14752 12.8283C6.23861 11.7391 6.54068 10.8462 6.94342 10.0715C7.03323 9.89867 7.16264 9.67638 7.28424 9.50995C7.36864 9.39438 7.43998 9.28903 7.50592 9.19452C7.57197 9.09986 7.63255 9.01565 7.69733 8.94452C7.82677 8.8024 7.97139 8.71019 8.19928 8.67596Z" fill="#E6E6E6" stroke="#3B82F6" stroke-width="0.00234588"/>
<path fill-rule="evenodd" clip-rule="evenodd" d="M12.3563 19.784C12.1065 19.411 11.0714 18.8844 10.2557 16.9487C9.67895 15.5801 9.75561 14.3912 9.75561 12.5128C9.572 12.5793 9.58628 12.6663 9.37145 12.9247C8.47006 14.0092 8.01653 15.9056 8.17082 17.3883C8.18255 17.501 8.24535 17.9694 8.29832 18.0568C8.33156 18.1116 8.68875 18.4168 8.74636 18.4581C9.73743 19.1676 11.046 19.784 12.3563 19.784H12.3563Z" stroke="#3B82F6" stroke-width="0.674935" stroke-miterlimit="22.9256"/>
<path d="M9.75342 12.5138C9.75339 14.3915 9.67767 15.5807 10.2544 16.9493C10.6623 17.9172 11.1251 18.5329 11.5171 18.9532C11.7131 19.1634 11.8917 19.3251 12.0366 19.4572C12.1803 19.5881 12.2914 19.6899 12.354 19.7823C11.0448 19.7816 9.73697 19.1662 8.74658 18.4572C8.71744 18.4362 8.61442 18.3498 8.51416 18.2618C8.46391 18.2178 8.41451 18.1728 8.37549 18.1359C8.36513 18.1261 8.35586 18.1161 8.34717 18.1075C8.33368 18.0942 8.32235 18.0828 8.31396 18.0734C8.3074 18.066 8.30196 18.0601 8.29932 18.0558C8.29283 18.045 8.28554 18.0281 8.27881 18.007C8.27205 17.9857 8.26599 17.9596 8.25928 17.9308C8.24578 17.8729 8.2321 17.8026 8.22021 17.7316C8.19645 17.5896 8.17822 17.4441 8.17236 17.3878C8.0182 15.9055 8.47156 14.01 9.37256 12.9259C9.47999 12.7967 9.53052 12.7098 9.57666 12.6476C9.5997 12.6165 9.62125 12.5909 9.64893 12.5695C9.67617 12.5484 9.7088 12.5301 9.75342 12.5138Z" fill="#E6E6E6" stroke="#3B82F6" stroke-width="0.00234588"/>
<path fill-rule="evenodd" clip-rule="evenodd" d="M13.0463 19.784C14.2368 19.784 15.4288 19.3121 16.3479 18.7335C16.564 18.5974 17.0065 18.2747 17.133 18.0857L16.1246 18.1388C14.1322 18.1388 12.507 17.2018 11.2815 15.9759C11.0648 15.7592 10.3397 15.2457 10.1165 15.186C10.1013 15.379 10.1759 16.7758 11.4451 18.3599C11.744 18.733 12.7955 19.784 13.0463 19.784Z" stroke="#3B82F6" stroke-width="0.674935" stroke-miterlimit="22.9256"/>
<path d="M10.1179 15.187C10.1736 15.2023 10.2602 15.2458 10.362 15.3052C10.4647 15.365 10.5829 15.4416 10.7009 15.5229C10.9371 15.6859 11.1727 15.8688 11.281 15.9771C12.5066 17.2029 14.1322 18.1401 16.1247 18.1401L17.1306 18.0864C17.0669 18.1806 16.9257 18.3076 16.7732 18.4282C16.6197 18.5495 16.4554 18.6649 16.3474 18.7329C15.4285 19.3113 14.2367 19.7826 13.0466 19.7827C13.0156 19.7827 12.9719 19.7662 12.9187 19.7368C12.8654 19.7074 12.8024 19.665 12.7331 19.6128C12.5947 19.5085 12.4301 19.366 12.2644 19.2114C11.9328 18.902 11.5954 18.5454 11.446 18.3589C10.179 16.7774 10.103 15.3829 10.1179 15.187Z" fill="#E6E6E6" stroke="#3B82F6" stroke-width="0.00234588"/>
<path fill-rule="evenodd" clip-rule="evenodd" d="M7.8449 17.6081C7.8449 17.268 7.79188 17.1697 7.79188 16.8651C7.79188 15.7277 8.08514 14.4403 8.61759 13.4979C8.70718 13.3394 8.76974 13.2428 8.85555 13.099C9.49753 12.0232 10.7553 11.1171 11.1356 10.5491C9.71441 10.5808 8.04601 11.3766 7.03524 12.3932L6.23199 13.3439C6.08281 13.5606 6.15476 13.4303 6.20353 14.0482C6.30396 15.3218 7.0268 16.6668 7.8449 17.6081V17.6081Z" stroke="#3B82F6" stroke-width="0.674935" stroke-miterlimit="22.9256"/>
<path d="M11.1329 10.5501C11.0378 10.6916 10.8887 10.8547 10.7081 11.0355C10.5267 11.217 10.3139 11.4172 10.0929 11.6331C9.65077 12.065 9.17562 12.5601 8.85458 13.098C8.76879 13.2417 8.7059 13.3388 8.6163 13.4974C8.08379 14.44 7.79111 15.728 7.79111 16.8655C7.79113 17.0175 7.80425 17.118 7.81747 17.223C7.83064 17.3274 7.8427 17.4367 7.84286 17.6048C7.02592 16.6639 6.30551 15.3201 6.20517 14.0482C6.19297 13.8937 6.17934 13.7854 6.16806 13.7073C6.1568 13.6294 6.14733 13.581 6.14462 13.5452C6.14196 13.5097 6.14597 13.4869 6.15927 13.4593C6.17265 13.4316 6.19539 13.3989 6.23251 13.345L7.03622 12.3939C8.04619 11.3781 9.71272 10.5827 11.1329 10.5501Z" fill="#E6E6E6" stroke="#3B82F6" stroke-width="0.00234588"/>
<path fill-rule="evenodd" clip-rule="evenodd" d="M14.3731 15.8566C14.8006 15.8566 15.4829 15.7001 15.8135 15.5985C17.1571 15.1855 18.5187 14.2127 19.2615 13.0456C19.5666 12.5661 18.8348 10.5403 18.4175 9.84848C18.2707 9.60512 17.8772 8.99355 17.6638 8.85071C17.6638 10.9548 17.5423 12.1455 16.2543 13.8633C15.8216 14.4405 14.593 15.5282 14.3731 15.8566L14.3731 15.8566Z" stroke="#3B82F6" stroke-width="0.674935" stroke-miterlimit="22.9256"/>
<path d="M17.6641 8.85266C17.7171 8.8884 17.7811 8.9528 17.8497 9.03333C17.9188 9.1145 17.9928 9.21207 18.0645 9.31262C18.2077 9.51353 18.3427 9.72702 18.4161 9.84875C18.6247 10.1946 18.9125 10.8747 19.1094 11.5275C19.2079 11.8537 19.2833 12.1736 19.3155 12.4415C19.3316 12.5754 19.3375 12.6965 19.3292 12.799C19.3208 12.9014 19.2988 12.9854 19.2608 13.045C18.5182 14.2119 17.1568 15.1848 15.8135 15.5978C15.4836 15.6992 14.8025 15.8541 14.3751 15.8546C14.4306 15.7725 14.5488 15.6442 14.7003 15.4884C14.853 15.3314 15.0403 15.1466 15.2344 14.9542C15.623 14.5693 16.0384 14.153 16.2549 13.8644C16.899 13.0054 17.252 12.2777 17.4434 11.5021C17.6347 10.727 17.6641 9.90371 17.6641 8.85266Z" fill="#E6E6E6" stroke="#3B82F6" stroke-width="0.00234588"/>
<path fill-rule="evenodd" clip-rule="evenodd" d="M8.37564 8.31989L9.54331 8.26687C10.9818 8.26687 12.7535 9.06316 13.6174 9.87169C13.7367 9.98329 13.7802 10.0489 13.9179 10.1551C14.3776 10.5102 14.9808 11.2891 15.3815 11.5575C15.3815 10.0991 14.5157 8.43287 13.5387 7.4559C13.3785 7.29558 13.2553 7.21775 13.086 7.05944C12.504 6.5152 12.4018 6.61715 11.8783 6.67423C10.8638 6.78481 8.87799 7.56977 8.37569 8.31989H8.37564Z" stroke="#3B82F6" stroke-width="0.674935" stroke-miterlimit="22.9256"/>
<path d="M12.4596 6.64203C12.623 6.67736 12.7946 6.78788 13.0856 7.06C13.1702 7.13915 13.2431 7.19897 13.3151 7.25824C13.3869 7.3174 13.4578 7.37656 13.5378 7.45648C14.5138 8.43254 15.3782 10.097 15.3795 11.5541C15.1798 11.4195 14.9297 11.1595 14.6725 10.8881C14.4142 10.6155 14.1486 10.3314 13.9186 10.1537C13.8499 10.1007 13.8043 10.0577 13.7614 10.0141C13.7185 9.97062 13.6773 9.92622 13.6178 9.87054C13.1858 9.46632 12.527 9.06515 11.7965 8.76508C11.0658 8.46494 10.263 8.26611 9.54361 8.26605L8.37759 8.31781C8.50326 8.13126 8.72142 7.94312 8.99283 7.76312C9.26538 7.58239 9.59227 7.41012 9.93521 7.25824C10.6212 6.95444 11.3715 6.73051 11.8786 6.67523C11.9438 6.66812 12.0024 6.65994 12.0563 6.65277C12.1102 6.64561 12.1597 6.63973 12.2057 6.63519C12.2978 6.62613 12.3781 6.62446 12.4596 6.64203Z" fill="#E6E6E6" stroke="#3B82F6" stroke-width="0.00234588"/>
<path fill-rule="evenodd" clip-rule="evenodd" d="M12.0378 16.175C12.0948 16.3325 12.1694 16.3543 12.3859 16.5169C13.7173 17.5164 15.3133 17.9637 17.0649 17.7523C17.5976 17.688 17.7113 17.6363 18.1318 17.0147C18.2768 16.8001 18.3637 16.6607 18.4967 16.4243C18.9085 15.6929 19.309 14.688 19.309 13.5743L18.7376 14.2237C17.7275 15.2338 16.0229 16.0987 14.5326 16.1754C13.7467 16.2158 12.8375 16.1751 12.0378 16.1751L12.0378 16.175Z" stroke="#3B82F6" stroke-width="0.674935" stroke-miterlimit="22.9256"/>
<path d="M19.3073 13.5773C19.3067 14.5502 19.0011 15.4401 18.6491 16.1368L18.4958 16.424C18.3628 16.6603 18.2755 16.7994 18.1305 17.0138C17.9203 17.3246 17.7867 17.4934 17.6393 17.5919C17.4922 17.6901 17.331 17.719 17.0651 17.7511C15.3138 17.9625 13.7176 17.5151 12.3864 16.5157C12.3493 16.4879 12.3162 16.4645 12.2868 16.4435C12.2623 16.426 12.2413 16.4091 12.2213 16.3947C12.1955 16.3758 12.1726 16.3597 12.153 16.3429C12.1005 16.2978 12.0671 16.2538 12.0387 16.1759C12.8382 16.1759 13.7472 16.2173 14.5329 16.1769C16.0235 16.1001 17.7287 15.2349 18.7389 14.2247L19.3073 13.5773Z" fill="#E6E6E6" stroke="#3B82F6" stroke-width="0.00234588"/>
<path fill-rule="evenodd" clip-rule="evenodd" d="M15.753 13.9459C17.0312 12.4754 17.5695 10.6039 17.2717 8.65884C17.2066 8.23295 16.9363 8.08258 16.4326 7.74655C15.5427 7.15316 14.2146 6.62158 13.1524 6.62158C13.2241 6.8199 13.1251 6.62911 13.2658 6.77359C13.3105 6.8196 13.3765 6.87785 13.4307 6.92706C13.7949 7.25725 14.007 7.43743 14.3354 7.88003C14.6954 8.36528 15.0126 8.85268 15.2539 9.45604C15.8098 10.8463 15.753 12.0595 15.753 13.9459H15.753Z" stroke="#3B82F6" stroke-width="0.674935" stroke-miterlimit="22.9256"/>
<path d="M13.1534 6.62256C14.2151 6.62288 15.5422 7.15447 16.4317 7.74756C16.6834 7.9155 16.8771 8.0368 17.0157 8.16943C17.1541 8.30203 17.2379 8.4462 17.2705 8.65869C17.5681 10.6022 17.0301 12.4721 15.7539 13.9419C15.754 12.0578 15.8105 10.8451 15.2549 9.45557C15.0136 8.8521 14.696 8.36467 14.336 7.87939C14.0076 7.43683 13.7957 7.25635 13.4317 6.92627C13.3774 6.87707 13.3114 6.8189 13.2666 6.77295C13.2315 6.73682 13.2111 6.72096 13.1992 6.71533C13.1934 6.7126 13.1893 6.71264 13.1866 6.71338C13.1849 6.71388 13.1834 6.71436 13.1826 6.71533C13.1823 6.71373 13.1824 6.71143 13.1817 6.7085C13.1787 6.69628 13.171 6.67138 13.1534 6.62256ZM13.1934 6.71631C13.187 6.71437 13.1857 6.71539 13.1846 6.71729C13.1851 6.7165 13.1862 6.7157 13.1875 6.71533C13.1888 6.71503 13.1906 6.71548 13.1934 6.71631Z" fill="#E6E6E6" stroke="#3B82F6" stroke-width="0.00234588"/>
</svg>
